<?xml version="1.0" encoding="UTF-8" standalone="no"?>
<svg
   xmlns:dc="http://purl.org/dc/elements/1.1/"
   xmlns:cc="http://creativecommons.org/ns#"
   xmlns:rdf="http://www.w3.org/1999/02/22-rdf-syntax-ns#"
   xmlns:svg="http://www.w3.org/2000/svg"
   xmlns="http://www.w3.org/2000/svg"
   xmlns:sodipodi="http://sodipodi.sourceforge.net/DTD/sodipodi-0.dtd"
   xmlns:inkscape="http://www.inkscape.org/namespaces/inkscape"
   version="1.1"
   id="svg3039"
   inkscape:version="0.48.4 r9939"
   width="370.45447"
   height="338.67276"
   sodipodi:docname="raptor.svg"
   enable-background="new">
  <metadata
     id="metadata3053">
    <rdf:RDF>
      <cc:Work
         rdf:about="">
        <dc:format>image/svg+xml</dc:format>
        <dc:type
           rdf:resource="http://purl.org/dc/dcmitype/StillImage" />
        <dc:title>Perl 5 Raptor</dc:title>
      </cc:Work>
    </rdf:RDF>
  </metadata>
  <defs
     id="defs3051">
    <linearGradient
       id="linearGradient3920">
      <stop
         style="stop-color:#000000;stop-opacity:1;"
         offset="0"
         id="stop3922" />
      <stop
         style="stop-color:#000000;stop-opacity:0;"
         offset="1"
         id="stop3924" />
    </linearGradient>
  </defs>
  <sodipodi:namedview
     pagecolor="#ffffff"
     bordercolor="#666666"
     borderopacity="1"
     objecttolerance="10"
     gridtolerance="10"
     guidetolerance="10"
     inkscape:pageopacity="0"
     inkscape:pageshadow="2"
     inkscape:window-width="1313"
     inkscape:window-height="744"
     id="namedview3049"
     showgrid="false"
     inkscape:zoom="1"
     inkscape:cx="193.12306"
     inkscape:cy="76.818909"
     inkscape:window-x="53"
     inkscape:window-y="24"
     inkscape:window-maximized="1"
     inkscape:current-layer="layer1"
     fit-margin-top="0"
     fit-margin-left="0"
     fit-margin-right="0"
     fit-margin-bottom="0" />
  <title
     id="title3041">Perl 5 Raptor</title>
  <description
     id="description3043">Copyright (C) 2012, Sebastian Riedel.</description>
  <g
     inkscape:groupmode="layer"
     id="layer1"
     inkscape:label="fill"
     style="display:inline">
    <path
       id="path3908"
       style="fill:#210d18;fill-opacity:1"
       inkscape:connector-curvature="0"
       d="m 248.41446,180.67276 c -8,8 -7,9 -11,18 -4,8 -5,8 -4,15 0,4 2,3 6,7 2,1 3,2 4,3 2,3 1,3 3,5 2,4 3,2 5,6 2,5 2,6 1,12 0,4 -3,6 -3,10 -1,10 -2,18 -2,19 0,8 0,8 -1,16 0,8 -1,8 -3,15 -1,3 -2,2 -3,5 -1,3 0,2 -1,5 -1,2 -2,3 -3,4 0,0 -1,0 -2,0 -2,1 -2,0 -4,1 -2,1 -3,0 -4,2 -2,2 -2,7 -2,7 0,0 -1,-3 -2,-5 0,-1 -1,-2 0,-5 0,-3 1,-3 2,-6 1,-2 3,-4 3,-4 -4,2 -4,3 -9,5 -3,1 -3,1 -6,0 -2,-1 -2,-2 -2,-2 0,0 -3,-1 -5,-1 -3,1 -7,6 -7,6 0,0 0,-5 2,-8 1,-4 1,-4 4,-6 3,-2 4,0 7,-2 5,-3 9,-8 9,-8 0,0 -3,-1 -5,-2 -3,-2 -3,-2 -5,-5 -1,-2 -1,-3 -1,-5 1,-2 3,-4 3,-4 0,0 2,-2 2,-4 1,-2 1,-3 0,-5 -1,-1 -2,-1 -5,-1 -2,0 -2,-1 -4,0 -3,2 -6,5 -6,5 0,0 0,-4 2,-6 3,-5 3,-5 8,-7 4,-2 5,-2 9,-2 4,1 5,2 8,5 2,1 3,11 3,11 0,0 1,-11 3,-16 1,-4 0,-9 0,-9 0,0 -4,2 -8,1 -6,-1 -7,-1 -13,-5 -5,-5 -5,-5 -8,-12 -2,-4 -1,-6 -3,-10 -1,-4 -4,-4 -6,-7 -3,-5 -6,-10 -6,-10 0,0 0,6 0,12 0,5 0,4 0,10 -1,5 -2,6 -2,11 0,6 1,5 3,10 2,6 4,3 5,10 0,3 -2,9 -2,9 0,0 -1,5 -2,11 -1,8 0,9 -1,17 -2,7 -4,14 -4,14 0,0 -1,6 -5,10 -5,5 -5,6 -13,8 -3,1 -3,0 -5,0 -2,1 -2,1 -3,1 -1,1 -2,0 -4,1 -2,1 -2,1 -4,3 -2,1 -5,5 -5,5 0,0 0,-3 1,-7 1,-4 6,-7 6,-7 0,0 -2,0 -4,0 -2,1 -2,1 -4,1 -3,1 -3,0 -6,0 -3,1 -6,5 -6,5 0,0 0,-4 2,-7 2,-3 3,-3 6,-5 3,-1 4,1 6,-1 7,-4 7,-5 13,-10 4,-4 1,-3 0,-6 -1,-2 -1,-2 -1,-4 0,-1 3,-3 1,-3 -4,1 -6,1 -7,4 -2,3 1,9 1,9 0,0 -6,-2 -7,-5 -1,-4 -2,-7 -1,-10 2,-4 4,-8 8,-10 5,-2 9,4 12,2 4,-3 3,-3 4,-8 1,-10 3,-10 1,-20 -3,-9 -5,-9 -10,-18 -3,-7 -3,-7 -5,-14 -2,-7 2,-9 -1,-14 -2,-3 -5,-4 -9,-3 -3,1 -4,3 -5,6 0,5 2,5 3,10 2,6 1,6 2,12 0,4 1,4 1,7 -1,3 -1,3 -2,5 -2,5 0,5 -2,9 -2,4 -5,6 -5,6 0,0 1,-7 0,-15 0,-2 -1,-1 -2,-4 -1,-4 0,-5 -1,-9 -1,-9 -2,-18 -2,-18 0,0 -2,13 -3,27 0,3 1,3 1,6 0,2 -1,2 -2,5 0,5 0,5 0,11 1,5 2,10 2,10 0,0 -3,-2 -5,-5 -2,-4 -3,-4 -5,-9 -1,-3 -1,-3 -1,-7 0,-5 1,-5 1,-10 1,-11 1,-22 1,-22 l -8,15 c 0,0 0,3 -1,5 -2,3 -4,2 -5,4 -2,2 -1,3 0,6 2,3 6,6 6,6 0,0 -6,-1 -10,-4 -3,-3 -3,-4 -4,-9 -1,-2 -1,-3 1,-6 7,-14 8,-13 17,-27 6,-9 9,-18 12,-19 2,-2 24,1 24,-2 -1,-3 -31,-24 -33,-25 -3,-1 -4,6 -7,12 -2,4 0,5 -3,7 -4,2 -6,3 -11,1 -15,-7 -13,-12 -28,-19 -4,-1 -7,0 -9,2 -5,5 -7,13 -5,13 1,1 2,-1 4,0 2,0 4,-1 6,-1 5,-1 8,2 8,2 0,0 -4,0 -7,2 -3,1 -4,2 -5,4 -1,2 -3,1 -4,2 0,0 -1,1 0,2 1,1 2,-1 4,-1 1,0 4,-1 7,-2 4,-2 4,-2 8,-5 2,-2 5,-4 5,-4 0,0 0,4 -2,7 -3,5 -4,6 -7,8 -5,4 -8,3 -8,4 -1,2 -1,1 -2,2 0,1 0,2 1,2 1,-1 4,-1 5,-1 1,1 3,0 5,-1 5,-3 8,-8 8,-8 0,0 -1,8 -5,11 -4,3 -5,3 -6,3 -1,1 -1,1 -2,2 -2,1 -2,1 -5,1 -2,-1 -7,-4 -12,-7 -6,-4 -5,-5 -8,-9 -5,-6 -8,-8 -7,-14 1,-6 4,-14 13,-23 6,-5 10,-8 18,-6 16,3 28,17 30,17 1,-1 8,-21 8,-32 0,-11 -1,-17 -5,-29.99999 -4,-16.000003 -8,-31.000003 -10,-32.000003 -2,-1 -9,-1 -19,-3 -14,-1 -16,-2 -30,-3 -16,-1 -27,1 -32,0 -4.0000003,-1 -4.0000003,-2 -5.0000003,-3 -1,-1 -2,-4 -1,-4 1,0 2,-1 2,-1 l -2,-12 6.0000003,11 1,0 -3,-15 6,14 2,0 -2,-16 6,15 3,-1 -2,-11 5,10 3,0 -1,-11 4,10 3,0 -3,-13 6,12 2,-1 -1,-8 5,6 2,-1 -2,-9 6,7 1,0 -1,-8 3,7 2,-1 0,-4 2,4 1,0 0,-8 3,7 2,0 0,-5 3,4 2,0 2,-5 2,4 c 0,0 2,0 7,-1 6,-2 12,-5 12,-5 l -21,-4 -3,5 -1,-6 -2,-1 -3,5 -1,-5 -2,-1 -3,6 -1,-7 -2,0 -2,6 -2,-7 -2,0 -1,9 -2,-10 -1,0 -2,9 -2,-9 -1,0 -1,12 -2,-12 -1,0 -1,9 -1,-9 -2,0 -2,12 -1,-12 -1,0 -2,6 -1,-7 -2,0 -2,10 0,-11 -2,0 -1,9 -1,-9 -1,-1 -2,14 -1,-14 -1,0 -3.0000003,12 -1,-13.000001 c 0,0 0,1.000001 -4,-3 -5,-3 -1,-8 1,-11.9999993 3,-5 5,-4 11.0000003,-5 23,-2 22,0 45,-1 9,-1 10,-4 18,-2.00000004 7,1.00000004 8,2.00000004 14,5.00000004 8,3 9,2 16,4.9999993 8,3 9,3 16,8 6,4 7,4 11,11.000001 5,9 5,9 7,20 4,19 4,35 4,40 0,5 1,4 5,6 6,3 6,2 13,3 10,1 11,0 21,2.000003 8,2 9,1 16,4 7,3 13,9 13,9 0,0 7,1.99999 14,5.99999 4,2 4,3 8,5 5,1 11,1 11,1 0,0 14,0 29.00001,-2 15,-2 15,-1 30.99999,-4 10,-3 19,-6.99999 19,-6.99999 0,0 9,-5 7,-10 -2,-5.000003 -9,-5.000003 -13,-10.000003 -3,-3 -4,-6 -4,-9 -1,-3 0,-7 4,-11 3,-5 7,-8 16,-8 13,-2 20,-2 28,3 8,5 7,10 7,10 0,0 -6,-6 -14,-7 -10,-1 -14,-2 -21,2 -6,3 -7,6 -5,12 2,5 9,5 12,6 3,2 9,4 11,12.000003 2,8 -4,17.99999 -4,17.99999 0,0 -6,10 -33,23 -27.99999,12 -23.99999,9 -46,21 -12,7 -13,7 -23,16 l 0,0 m -172,-167.999994 c 2,0 4,-1 4,-2.9999993 0,-2 -2,-3 -4,-3 -3,0 -6,1 -6,3 0,1.9999993 3,2.9999993 6,2.9999993 l 0,0" />
  </g>
</svg>
